<svg xmlns="http://www.w3.org/2000/svg" width="32" height="32">
    <path style="stroke:none;fill-rule:nonzero;fill:#000;fill-opacity:1" d="M9.332 6.668h13.336v2.664h2.664V4c0-1.465-1.2-2.652-2.664-2.652L9.332 1.332A2.676 2.676 0 0 0 6.668 4v5.332h2.664Zm11.215 15.453L26.668 16l-6.121-6.121-1.879 1.894L22.895 16l-4.227 4.227Zm-7.215-1.894L9.105 16l4.227-4.227-1.879-1.894L5.332 16l6.121 6.121Zm9.336 5.105H9.332v-2.664H6.668V28c0 1.465 1.2 2.668 2.664 2.668h13.336A2.676 2.676 0 0 0 25.332 28v-5.332h-2.664Zm0 0"/>
</svg>
